<svg width="100" height="100" xmlns="http://www.w3.org/2000/svg">
  <defs>
    <pattern id="hexagonPattern" width="50" height="50" patternUnits="userSpaceOnUse">
      <path d="M25,0 L50,15 L50,40 L25,50 L0,40 L0,15 Z" fill="none" stroke="white" stroke-width="1" opacity="0.3"/>
      <path d="M25,0 L50,15 L50,40 L25,50 L0,40 L0,15 Z" transform="translate(50,25)" fill="none" stroke="white" stroke-width="1" opacity="0.3"/>
      <path d="M25,0 L50,15 L50,40 L25,50 L0,40 L0,15 Z" transform="translate(0,50)" fill="none" stroke="white" stroke-width="1" opacity="0.3"/>
      <path d="M25,0 L50,15 L50,40 L25,50 L0,40 L0,15 Z" transform="translate(-50,25)" fill="none" stroke="white" stroke-width="1" opacity="0.3"/>
    </pattern>
  </defs>
  <rect width="100%" height="100%" fill="url(#hexagonPattern)" />
</svg> 